<svg id="Layer_2" data-name="Layer 2" xmlns="http://www.w3.org/2000/svg" viewBox="0 0 600 600"><defs><style>.cls-1{fill:none;stroke-width:43px;}.cls-1,.cls-2,.cls-3{stroke:#878787;stroke-miterlimit:10;}.cls-2,.cls-3{fill:#878787;}.cls-2{stroke-width:12.99px;}.cls-3{stroke-width:19.4px;}</style></defs><rect class="cls-1" x="104.13" y="261.97" width="393.48" height="276.54" rx="32.6"/><path class="cls-2" d="M539.88,333.16h-476c-1,0-2-.05-3-.14-20.74-1.9-33.25-24-25-43.12l67.86-156.76c.26-.61.55-1.22.86-1.81,8.83-17.23,14.44-31.71,32.14-31.71H465c17.62,0,24.15,16.84,32.08,31.64.35.64.67,1.3,1,2L567.61,289.6c8.75,19.68-4.72,42.56-26.24,43.53C540.88,333.15,540.38,333.16,539.88,333.16Z"/><circle class="cls-3" cx="103.86" cy="306.96" r="65.22"/><circle class="cls-3" cx="229.12" cy="306.96" r="65.22"/><circle class="cls-3" cx="365.01" cy="306.96" r="65.22"/><circle class="cls-3" cx="499.64" cy="306.96" r="65.22"/></svg>