<?xml version="1.0" encoding="utf-8"?>
<!-- Generator: Adobe Illustrator 24.1.1, SVG Export Plug-In . SVG Version: 6.00 Build 0)  -->
<svg version="1.1" id="Capa_1" xmlns="http://www.w3.org/2000/svg" xmlns:xlink="http://www.w3.org/1999/xlink" x="0px" y="0px"
	 viewBox="0 0 512 512" style="enable-background:new 0 0 512 512;" xml:space="preserve">
<g>
	<g>
		<g>
			<path d="M384,0H128c-23.5,0-42.7,19.1-42.7,42.7v458.7c0,4.1,2.4,7.9,6.1,9.7c3.7,1.8,8.2,1.2,11.4-1.5l121.2-101l121.2,101
				c2,1.6,4.4,2.5,6.8,2.5c1.5,0,3.1-0.3,4.5-1c3.8-1.8,6.1-5.5,6.1-9.7v-224H416c5.9,0,10.7-4.8,10.7-10.7v-224
				C426.7,19.1,407.5,0,384,0z M341.3,42.7v435.9l-110.5-92.1c-2-1.6-4.4-2.5-6.8-2.5s-4.9,0.8-6.8,2.5l-110.5,92.1V42.7
				c0-11.8,9.6-21.3,21.3-21.3h219.1C343.4,27.6,341.3,34.9,341.3,42.7z M405.3,256h-42.7V42.7c0-11.8,9.6-21.3,21.3-21.3
				c11.8,0,21.3,9.6,21.3,21.3L405.3,256L405.3,256z"/>
		</g>
	</g>
	<rect x="99.6" y="17.1" width="250.4" height="379"/>
	<polygon points="95.5,389.9 96.2,493.1 219.3,396.1 348,491.8 354.9,382.4 	"/>
</g>
</svg>
