<svg id="favorite_border-24px" xmlns="http://www.w3.org/2000/svg" width="473.27" height="473.27" viewBox="0 0 473.27 473.27">
  <path id="Path_21" data-name="Path 21" d="M0,0H473.27V473.27H0Z" fill="none"/>
  <path id="Path_22" data-name="Path 22" d="M416.305,29.211c-61.921-47.626-138.384-25.4-179.664,29.1C195.361,3.81,118.9-18.68,56.977,29.211,24.14,54.611,3.5,97.475,2.093,142.719c-3.284,102.66,77.4,184.947,200.539,311.156l2.346,2.381c17.826,18.257,45.268,18.257,63.094-.265l2.58-2.646C393.789,327.4,474.239,245.115,471.19,142.455c-1.407-44.98-22.048-87.843-54.884-113.244ZM238.987,414.452l-2.345,2.646-2.345-2.646C122.65,300.414,49,225.006,49,148.54c0-52.918,35.182-92.606,82.092-92.606,36.12,0,71.3,26.194,83.734,62.443h43.861c12.2-36.249,47.379-62.443,83.5-62.443,46.91,0,82.092,39.688,82.092,92.606C424.28,225.006,350.632,300.414,238.987,414.452Z" transform="translate(0 0)" fill="#1d2a5b"/>
</svg>
