<svg id="share-24px" xmlns="http://www.w3.org/2000/svg" width="409.832" height="473.27" viewBox="0 0 409.832 473.27">
  <path id="Path_23" data-name="Path 23" d="M0,0H409.832V473.27H0Z" fill="none"/>
  <path id="Path_24" data-name="Path 24" d="M339.527,333.636c-17.051,0-32.307,7.066-43.973,18.136L135.592,254.025a80.744,80.744,0,0,0,2.019-16.488,80.743,80.743,0,0,0-2.019-16.488l158.168-96.806c12.115,11.777,28.044,19.079,45.768,19.079,37.242,0,67.305-31.562,67.305-70.661S376.769,2,339.527,2s-67.305,31.562-67.305,70.661a80.742,80.742,0,0,0,2.019,16.488L116.073,185.955c-12.115-11.777-28.044-19.079-45.768-19.079C33.063,166.876,3,198.438,3,237.537S33.063,308.2,70.305,308.2c17.724,0,33.653-7.3,45.768-19.079L275.811,387.1a69.6,69.6,0,0,0-1.795,15.31c0,37.922,29.39,68.777,65.511,68.777s65.511-30.855,65.511-68.777-29.39-68.777-65.511-68.777Z" transform="translate(0)" fill="#1d2a5b"/>
</svg>
