<svg width="492.004" height="492.004" xmlns="http://www.w3.org/2000/svg">

 <g>
  <title>background</title>
  <rect fill="none" id="canvas_background" height="402" width="582" y="-1" x="-1"/>
 </g>
 <g>
  <title>Layer 1</title>
  <g stroke="null" transform="rotate(-180 244.00202941894534,244.50199890136716) " id="svg_1">
   <g stroke="null" id="svg_2">
    <path stroke="null" id="svg_3" d="m379.732303,226.279499l-217.433041,-207.818886c-5.028961,-4.810482 -11.742187,-7.460613 -18.900313,-7.460613s-13.871352,2.650131 -18.900313,7.460613l-16.012434,15.300901c-10.419403,9.970264 -10.419403,26.174792 0,36.129869l182.583852,174.513798l-182.78644,174.707432c-5.028961,4.810482 -7.805615,11.223192 -7.805615,18.061138c0,6.84554 2.776654,13.25825 7.805615,18.072528l16.012434,15.297104c5.032933,4.810482 11.742187,7.460613 18.900313,7.460613s13.871352,-2.650131 18.900313,-7.460613l217.635629,-208.008723c5.040878,-4.825669 7.809587,-11.268753 7.793698,-18.118089c0.015889,-6.875914 -2.75282,-13.315201 -7.793698,-18.137073z"/>
   </g>
  </g>
  <g id="svg_4"/>
  <g id="svg_5"/>
  <g id="svg_6"/>
  <g id="svg_7"/>
  <g id="svg_8"/>
  <g id="svg_9"/>
  <g id="svg_10"/>
  <g id="svg_11"/>
  <g id="svg_12"/>
  <g id="svg_13"/>
  <g id="svg_14"/>
  <g id="svg_15"/>
  <g id="svg_16"/>
  <g id="svg_17"/>
  <g id="svg_18"/>
 </g>
</svg>