<svg id="arrow_back-24px" xmlns="http://www.w3.org/2000/svg" width="473.27" height="473.27" viewBox="0 0 473.27 473.27">
  <defs>
    <style>
      .cls-1 {
        fill: none;
      }
    </style>
  </defs>
  <path id="Path_3" data-name="Path 3" class="cls-1" d="M0,0H473.27V473.27H0Z"/>
  <path id="Path_4" data-name="Path 4" d="M439.438,206.177H106.218L251.8,56.82a31.421,31.421,0,0,0,0-43.46,29.18,29.18,0,0,0-42.063,0L13.143,215.053a31.041,31.041,0,0,0,0,43.154L209.734,459.9a29.18,29.18,0,0,0,42.063,0,31.041,31.041,0,0,0,0-43.154L106.218,267.389h333.22c16.407,0,29.832-13.773,29.832-30.606S455.846,206.177,439.438,206.177Z" transform="translate(0 0)"/>
</svg>
